<svg width="163" height="47" viewBox="0 0 163 47" fill="none" xmlns="http://www.w3.org/2000/svg">
<path fill-rule="evenodd" clip-rule="evenodd" d="M83.4194 35.7356V27.4685C83.4194 27.0614 83.5134 26.8109 83.9518 26.7796C84.1248 26.7672 84.3028 26.7451 84.4818 26.7228L84.4818 26.7228C84.7562 26.6887 85.033 26.6543 85.2983 26.6543C86.3943 26.7169 87.0519 27.3432 87.2398 28.4079C87.2983 28.7879 87.3295 29.1951 87.3588 29.5787V29.5788L87.3651 29.6605C87.3651 34.984 87.3651 40.3388 87.3964 45.6623C87.3964 46.1947 87.2085 46.4452 86.7075 46.4765C86.5623 46.4856 86.4171 46.4999 86.2727 46.5142L86.2726 46.5142C85.9187 46.5491 85.5693 46.5836 85.2357 46.5391C84.0457 46.3512 83.4507 45.4431 83.4507 43.8774C83.4194 41.153 83.4194 38.4599 83.4194 35.7356ZM26.6876 37.9903H22.4288V46.6645H17.2932V37.9903H16.9175C15.8841 37.9903 15.0386 37.1448 15.0386 36.1114V33.9507H17.2932V32.291C17.2932 30.4748 17.9822 29.0969 19.3287 28.1888C20.6752 27.312 22.241 26.8423 23.9633 26.8423C24.6209 26.8423 25.3411 26.9675 26.0927 27.2181C26.8442 27.4686 27.4079 27.7504 27.7523 28.0636L26.2805 31.5708C25.9674 31.3829 25.6229 31.2577 25.2472 31.1637C24.8714 31.0698 24.5582 31.0385 24.3077 31.0385C23.7127 31.0385 23.243 31.195 22.8986 31.5395C22.5541 31.8839 22.3975 32.3224 22.3975 32.886V33.982H24.4956C25.435 33.982 26.2492 34.7023 26.3745 35.6417L26.6876 37.9903ZM28.7524 39.7753C28.7524 37.4893 29.504 35.7044 31.0071 34.4204C32.5102 33.1679 34.3578 32.5103 36.4872 32.5103C38.7418 32.5103 40.5894 33.1365 42.0612 34.3578C43.5017 35.6104 44.2532 37.4267 44.2532 39.8692C44.2532 42.1552 43.5017 43.9088 41.9672 45.1301C40.4328 46.3513 38.5853 46.9463 36.3932 46.9463C34.2012 46.9463 32.3849 46.3513 30.9132 45.1614C29.4727 44.0027 28.7524 42.2178 28.7524 39.7753ZM34.0446 39.7753C34.0446 40.6834 34.2638 41.4349 34.6709 41.9986C35.078 42.5623 35.673 42.8441 36.4559 42.8441C37.27 42.8441 37.8963 42.5936 38.3034 42.1239C38.7418 41.6228 38.961 40.9026 38.961 39.9631C38.961 39.055 38.7418 38.2722 38.3347 37.6772C37.9276 36.9883 37.3327 36.6751 36.5498 36.6751C35.7356 36.6751 35.1093 36.9569 34.7022 37.4893C34.2638 38.053 34.0446 38.8045 34.0446 39.7753ZM61.9088 37.4882C61.7522 37.4256 61.6896 37.3003 61.6896 37.175C61.6896 37.0811 61.7835 36.9558 61.9714 36.8619C62.128 36.7679 62.4411 36.7053 62.8482 36.7053C63.3179 36.7053 63.8816 36.8306 64.4766 37.0498C65.4473 37.4256 66.5434 36.9558 66.9504 35.9851L67.0444 35.7972C67.4202 34.8577 67.0131 33.7931 66.0736 33.386C65.6979 33.2294 65.2908 33.0728 64.8837 32.9789C63.8503 32.697 63.0361 32.5718 62.4724 32.5718C60.5936 32.5718 59.0905 32.9789 58.0258 33.793C56.9611 34.6072 56.4287 35.7032 56.4287 37.1437C56.4287 38.3963 56.9611 39.3671 58.0258 40.056C59.0905 40.7449 60.1865 41.2773 61.3138 41.6844C61.7209 41.8096 62.0027 41.9349 62.1593 42.0288C62.3159 42.1228 62.3785 42.248 62.3785 42.3733C62.3785 42.4672 62.3159 42.5612 62.1593 42.6864C62.0027 42.7804 61.7835 42.843 61.4704 42.843C60.9693 42.843 60.343 42.7177 59.5602 42.4359C59.4843 42.3853 59.3881 42.3552 59.3043 42.329C59.2844 42.3227 59.2651 42.3167 59.247 42.3106C58.2763 41.9349 57.2116 42.4359 56.8358 43.3753C56.3974 44.4714 56.8984 45.7239 57.9944 46.131C58.0764 46.1583 58.1598 46.1871 58.2446 46.2164L58.245 46.2165C58.5494 46.3217 58.873 46.4334 59.2157 46.5068C60.4996 46.82 61.4077 46.9765 61.9714 46.9765C63.8503 46.9765 65.2908 46.5694 66.2302 45.7553C67.1696 44.9411 67.6394 43.8451 67.6394 42.4046C67.6394 41.152 67.107 40.1812 66.0736 39.4923C65.0402 38.8034 63.9756 38.271 62.8482 37.864C62.3785 37.7074 62.034 37.5821 61.9088 37.4882ZM92.6863 41.122C92.7803 42.4999 93.9076 43.4706 95.4107 43.5646C96.4754 43.6272 97.5401 43.408 98.4796 42.907C99.92 42.1241 101.204 42.5312 102.018 43.9717C102.237 44.3161 102.143 44.5667 101.862 44.8485C99.1685 47.3223 94.5965 47.7294 91.5277 45.7253C89.0852 44.1596 87.9578 41.2786 88.5528 38.2411C89.1165 35.4854 91.3085 33.3247 94.0642 32.7923C95.4107 32.5105 96.8199 32.5731 98.1351 32.9489C101.392 33.951 102.613 36.7693 102.801 39.1805C102.895 40.3392 102.206 41.0907 101.016 41.122C98.5109 41.1534 96.0057 41.1534 93.5005 41.1534C93.262 41.0639 93.0236 41.088 92.7311 41.1175L92.6863 41.122ZM92.655 38.335C92.7177 38.3507 92.7803 38.3585 92.8429 38.3664C92.9055 38.3742 92.9682 38.382 93.0308 38.3977H97.9785C98.6048 38.3977 98.7301 38.1471 98.4796 37.5835C97.9785 36.5188 96.9138 35.8925 95.536 35.9864C94.2834 36.0491 93.3439 36.6127 92.7803 37.7714C92.7177 37.9593 92.6863 38.1471 92.655 38.335ZM82.4123 41.6859C82.4158 41.0283 82.4193 40.3707 82.4193 39.7131V33.7633C82.388 33.5754 82.3254 33.2936 82.2001 33.1996C81.4172 32.6986 79.6323 33.0117 79.0686 33.7633C78.7242 34.2643 78.411 34.233 77.9726 33.9512C77.9726 33.9199 77.9413 33.9199 77.9413 33.9199C75.2482 32.1662 71.647 32.8865 69.8621 35.5795C69.0166 36.8008 68.6095 38.21 68.6408 39.6818C68.6722 42.4688 69.7055 44.7234 72.3047 46.0073C74.2775 46.9781 76.2503 46.8215 78.0979 45.5689C78.2544 45.4437 78.6615 45.3497 78.7555 45.4437C79.5689 46.3822 80.6324 46.3518 81.7273 46.3206L81.7304 46.3205C82.2001 46.3205 82.4193 46.1639 82.4193 45.6315C82.3984 44.3167 82.4054 43.0018 82.4123 41.687V41.6859ZM74.5906 36.5503C76.8766 35.8927 78.7242 37.3645 78.7242 39.807C78.7555 42.3435 76.7827 43.69 74.4967 43.0324C72.931 42.594 72.336 41.0283 72.4612 39.4939C72.5865 37.8968 73.338 36.8947 74.5906 36.5503ZM46.2534 33.0107V46.6639H48.8839C50.2617 46.6639 51.389 45.5366 51.389 44.1588V38.3656C51.9527 37.8958 52.6103 37.5827 53.3305 37.3948C54.0508 37.2069 54.7397 37.113 55.4286 37.113L54.3952 33.0107C53.6124 33.0107 52.8608 33.1673 52.0779 33.4491C51.2951 33.6997 50.6375 34.0441 50.0738 34.4199L49.2909 33.5431C49.0091 33.1986 48.5707 33.0107 48.1323 33.0107H46.2534Z" fill="#47763B"/>
<path fill-rule="evenodd" clip-rule="evenodd" d="M74.2373 0.318581V20.198H79.462V10.8636C79.8762 10.6725 80.3222 10.4813 80.8319 10.322C81.3417 10.1627 81.7558 10.0672 82.0744 10.0672C82.5523 10.0672 82.9664 10.2264 83.285 10.5132C83.6036 10.7999 83.7629 11.214 83.7629 11.7556V20.2299H88.9876V11.6282C88.9876 9.97158 88.5416 8.60168 87.7133 7.48665C86.885 6.37162 85.4832 5.83003 83.508 5.83003C82.839 5.83003 82.1381 5.92561 81.4054 6.11675C80.6726 6.27604 80.0355 6.49905 79.462 6.75392V0L74.2373 0.318581ZM14.7184 6.3724C14.8459 6.3724 14.9414 6.46798 14.9414 6.59541V20.39C14.9414 22.397 14.2724 23.9262 12.9344 24.9775C11.5963 26.0288 9.71672 26.5386 7.26364 26.5386C6.65834 26.5386 5.76631 26.4111 4.58756 26.1881L1.46547 25.551C1.33804 25.5191 1.24247 25.3917 1.30618 25.2643L2.93094 21.4731C2.99466 21.3457 3.12209 21.3138 3.21767 21.3776C4.07784 21.7917 4.77871 22.0466 5.35216 22.1422C5.95746 22.2696 6.56277 22.3333 7.13621 22.3333C7.74152 22.3333 8.2831 22.2059 8.85655 21.9829C9.39814 21.7599 9.68486 21.4094 9.68486 20.9953V20.3262C9.68486 20.167 9.52557 20.0714 9.39814 20.1351C9.07956 20.2625 8.72912 20.3581 8.34682 20.4537C7.83709 20.5811 7.2955 20.613 6.65834 20.613C4.42827 20.613 2.7398 19.9121 1.62476 18.5422C0.541587 17.1086 0 15.3882 0 13.3493C0 11.2785 0.541587 9.4945 1.65662 8.06088C2.7398 6.59541 4.52385 5.89453 6.97692 5.89453C7.77337 5.89453 8.53797 6.05382 9.33442 6.40426C10.0672 6.72284 10.7043 7.07328 11.2778 7.45558C11.3733 7.51929 11.5008 7.48744 11.5645 7.42372L11.7556 7.20071C12.1379 6.72284 12.6795 6.43612 13.2848 6.43612H14.7184V6.3724ZM9.71672 15.7705V11.0874C9.71672 11.0237 9.68486 10.96 9.653 10.9281C9.39814 10.7051 9.07956 10.514 8.69726 10.3547C8.2831 10.1954 7.90081 10.0998 7.55037 10.0998C6.75392 10.0998 6.21233 10.4502 5.86189 11.1511C5.51145 11.852 5.35216 12.5529 5.35216 13.2219C5.35216 14.0502 5.57517 14.7511 6.02118 15.3882C6.46719 16.0254 7.10435 16.3121 7.96452 16.3121C8.18753 16.3121 8.44239 16.2803 8.79283 16.1847C9.07956 16.121 9.33442 16.0573 9.55743 15.9617C9.68486 15.9298 9.71672 15.8661 9.71672 15.7705ZM16.9414 20.2299V6.37158H18.8529C19.2989 6.37158 19.7449 6.56273 20.0316 6.91317L20.8281 7.8052C21.4015 7.4229 22.0706 7.07246 22.867 6.8176C23.6635 6.53087 24.4281 6.37158 25.2245 6.37158L26.244 10.5131C25.5431 10.5131 24.8422 10.6087 24.1095 10.7999C23.3767 10.991 22.7077 11.3096 22.1343 11.7875V17.6812C22.1343 19.083 20.9874 20.2299 19.5856 20.2299H16.9414ZM89.9878 13.2212C89.9878 10.8955 90.7524 9.0796 92.2816 7.77342C93.8108 6.4991 95.6904 5.83008 97.8567 5.83008C100.151 5.83008 102.03 6.46724 103.527 7.70971C104.993 8.98403 105.758 10.8318 105.758 13.3167C105.758 15.6424 104.993 17.4264 103.432 18.6689C101.871 19.9114 99.9912 20.5167 97.7612 20.5167C95.5311 20.5167 93.6833 19.9114 92.186 18.7007C90.7205 17.5539 89.9878 15.7061 89.9878 13.2212ZM95.3718 13.2212C95.3718 14.145 95.5948 14.9096 96.009 15.4831C96.4231 16.0565 97.0284 16.3432 97.8249 16.3432C98.6532 16.3432 99.2904 16.0884 99.7045 15.6105C100.151 15.1008 100.374 14.368 100.374 13.4123C100.374 12.4884 100.151 11.692 99.7364 11.0867C99.3222 10.4814 98.7169 10.1628 97.9205 10.1628C97.0921 10.1628 96.455 10.4495 96.0408 10.9911C95.5948 11.469 95.3718 12.2336 95.3718 13.2212ZM115.232 20.1661C116.187 19.7838 116.92 19.4015 117.525 19.083L118.609 20.2617H121.221V6.37158H115.996V15.706C115.582 15.8972 115.136 16.0883 114.69 16.2476C114.244 16.4069 113.862 16.5025 113.543 16.5025C113.065 16.5025 112.683 16.375 112.396 16.0883C112.109 15.8016 111.982 15.3874 111.982 14.8458V6.37158H106.757V14.9733C106.757 16.6299 107.14 18.0316 107.936 19.1148C108.733 20.2298 110.102 20.7714 112.078 20.7714C113.256 20.7714 114.308 20.5803 115.232 20.1661ZM31.6084 14.5919C31.704 15.9936 32.8509 16.9812 34.3801 17.0768C35.4633 17.1405 36.5464 16.9175 37.5022 16.4078C38.9677 15.6114 40.2738 16.0255 41.1022 17.491C41.3252 17.8414 41.2296 18.0963 40.9429 18.383C38.2031 20.8998 33.5518 21.3139 30.4297 19.275C27.9448 17.6821 26.7979 14.7512 27.4032 11.6609C27.9766 8.85744 30.2067 6.65923 33.0102 6.11764C34.3801 5.83092 35.8137 5.89463 37.1517 6.27693C40.465 7.29639 41.7075 10.1636 41.8986 12.6167C41.9942 13.7954 41.2933 14.56 40.0827 14.5919C37.534 14.6237 34.9854 14.6238 32.4368 14.6238C32.2331 14.5559 32.0455 14.5683 31.8512 14.5813L31.8511 14.5813C31.7719 14.5865 31.6915 14.5919 31.6084 14.5919ZM31.5766 11.7884C31.6403 11.8043 31.704 11.8123 31.7677 11.8202C31.8314 11.8282 31.8952 11.8362 31.9589 11.8521H36.9925C37.6296 11.8521 37.757 11.5972 37.5022 11.0238C36.9925 9.94061 35.9093 9.30345 34.5075 9.39902C33.2332 9.46274 32.2775 10.0362 31.704 11.2149C31.6403 11.3742 31.6084 11.5654 31.5766 11.7884ZM50.0432 17.0768C48.514 16.9812 47.3671 15.9936 47.2715 14.5919C47.3546 14.5919 47.435 14.5865 47.5142 14.5813L47.5143 14.5813C47.7086 14.5683 47.8962 14.5559 48.0998 14.6238C50.6485 14.6238 53.1971 14.6237 55.7458 14.5919C56.9564 14.56 57.6573 13.7954 57.5617 12.6167C57.3705 10.1636 56.1281 7.29639 52.8148 6.27693C51.4768 5.89463 50.0432 5.83092 48.6733 6.11764C45.8698 6.65923 43.6397 8.85744 43.0663 11.6609C42.461 14.7512 43.6078 17.6821 46.0928 19.275C49.2149 21.3139 53.8661 20.8998 56.6059 18.383C56.8927 18.0963 56.9882 17.8414 56.7652 17.491C55.9369 16.0255 54.6307 15.6114 53.1653 16.4078C52.2095 16.9175 51.1264 17.1405 50.0432 17.0768ZM47.4308 11.8202C47.3671 11.8123 47.3034 11.8043 47.2397 11.7884C47.2715 11.5654 47.3034 11.3742 47.3671 11.2149C47.9405 10.0362 48.8963 9.46274 50.1706 9.39902C51.5724 9.30345 52.6555 9.94061 53.1653 11.0238C53.4201 11.5972 53.2927 11.8521 52.6555 11.8521H47.622C47.5583 11.8362 47.4945 11.8282 47.4308 11.8202ZM139.99 14.5919C140.086 15.9936 141.233 16.9812 142.762 17.0768C143.845 17.1405 144.928 16.9175 145.884 16.4078C147.35 15.6114 148.656 16.0255 149.484 17.491C149.707 17.8414 149.611 18.0963 149.325 18.383C146.585 20.8998 141.934 21.3139 138.812 19.275C136.327 17.6821 135.18 14.7512 135.785 11.6609C136.358 8.85744 138.589 6.65923 141.392 6.11764C142.762 5.83092 144.196 5.89463 145.534 6.27693C148.847 7.29639 150.089 10.1636 150.28 12.6167C150.376 13.7954 149.675 14.56 148.465 14.5919C145.916 14.6237 143.367 14.6238 140.819 14.6238C140.615 14.5559 140.427 14.5683 140.233 14.5813C140.154 14.5865 140.073 14.5919 139.99 14.5919ZM139.958 11.7884C140.022 11.8043 140.086 11.8123 140.15 11.8202C140.213 11.8282 140.277 11.8362 140.341 11.8521H145.374C146.011 11.8521 146.139 11.5972 145.884 11.0238C145.374 9.94061 144.291 9.30345 142.889 9.39902C141.615 9.46274 140.659 10.0362 140.086 11.2149C140.022 11.3742 139.99 11.5654 139.958 11.7884ZM58.5703 19.5922V20.2293V20.2612H62.68V19.5603V12.7746C62.7119 10.4808 63.9862 9.30202 66.2481 9.52503C67.1083 9.62061 67.7454 10.0985 67.9685 10.9268C68.0959 11.3728 68.1277 11.8188 68.1277 12.2648V19.7196C68.1277 19.7589 68.1238 19.8022 68.1197 19.8467C68.1006 20.0552 68.0789 20.2931 68.4463 20.2931H72.1737C72.1767 20.2754 72.1796 20.258 72.1825 20.2409C72.185 20.2262 72.1875 20.2116 72.19 20.1973C72.2156 20.0481 72.2374 19.9207 72.2374 19.8152V11.3409C72.2374 10.9268 72.2056 10.5126 72.11 10.1303C71.6958 7.80469 70.1348 6.17993 67.9047 5.76578C66.28 5.47905 64.7189 5.73392 63.3809 6.75338C63.0623 6.97638 62.7437 7.19939 62.4251 6.78523C61.565 5.70206 60.4499 5.54277 59.1756 5.76578C58.634 5.86135 58.5703 6.08436 58.5703 6.53037V19.5922ZM156.641 10.4815C156.641 10.6089 156.705 10.7363 156.864 10.8001C156.992 10.8956 157.342 11.0231 157.82 11.1824C158.967 11.5965 160.05 12.1381 161.101 12.839C162.153 13.5399 162.694 14.5275 162.694 15.8018C162.694 17.2673 162.216 18.3823 161.261 19.2106C160.305 20.0389 158.839 20.4531 156.928 20.4531C156.355 20.4531 155.431 20.2938 154.124 19.9752C153.776 19.9005 153.447 19.7868 153.137 19.6799C153.05 19.65 152.965 19.6207 152.882 19.5929C151.767 19.1787 151.257 17.9044 151.703 16.7894C152.086 15.8336 153.169 15.3239 154.156 15.7062C154.175 15.7123 154.194 15.7185 154.215 15.7248C154.3 15.7515 154.398 15.7822 154.475 15.8336C155.271 16.1204 155.908 16.2478 156.418 16.2478C156.737 16.2478 156.96 16.1841 157.119 16.0885C157.278 15.9611 157.342 15.8655 157.342 15.7699C157.342 15.6425 157.278 15.5151 157.119 15.4195C156.96 15.3239 156.673 15.1965 156.259 15.069C155.112 14.6549 153.997 14.1133 152.914 13.4124C151.831 12.7115 151.289 11.7239 151.289 10.4496C151.289 8.98415 151.831 7.86912 152.914 7.04081C153.997 6.21249 155.526 5.79834 157.438 5.79834C158.011 5.79834 158.839 5.92577 159.891 6.21249C160.305 6.30807 160.719 6.46736 161.101 6.62665C162.057 7.0408 162.471 8.12398 162.089 9.07972L161.962 9.23901C161.547 10.2266 160.432 10.7045 159.445 10.3222C158.839 10.0992 158.266 9.97175 157.788 9.97175C157.374 9.97175 157.055 10.0355 156.896 10.131C156.705 10.2585 156.641 10.3859 156.641 10.4815ZM128.796 10.8001C128.637 10.7363 128.573 10.6089 128.573 10.4815C128.573 10.3859 128.637 10.2585 128.828 10.131C128.987 10.0355 129.306 9.97175 129.72 9.97175C130.198 9.97175 130.771 10.0992 131.376 10.3222C132.364 10.7045 133.479 10.2266 133.893 9.23901L134.021 9.07972C134.403 8.12398 133.989 7.0408 133.033 6.62665C132.651 6.46736 132.237 6.30807 131.822 6.21249C130.771 5.92577 129.943 5.79834 129.369 5.79834C127.458 5.79834 125.929 6.21249 124.845 7.04081C123.762 7.86912 123.221 8.98415 123.221 10.4496C123.221 11.7239 123.762 12.7115 124.845 13.4124C125.929 14.1133 127.044 14.6549 128.191 15.069C128.605 15.1965 128.891 15.3239 129.051 15.4195C129.21 15.5151 129.274 15.6425 129.274 15.7699C129.274 15.8655 129.21 15.9611 129.051 16.0885C128.891 16.1841 128.668 16.2478 128.35 16.2478C127.84 16.2478 127.203 16.1204 126.407 15.8336C126.329 15.7822 126.231 15.7515 126.146 15.7248C126.126 15.7185 126.106 15.7123 126.088 15.7062C125.1 15.3239 124.017 15.8336 123.635 16.7894C123.189 17.9044 123.699 19.1787 124.814 19.5929C124.897 19.6207 124.982 19.65 125.068 19.6799C125.378 19.7868 125.707 19.9005 126.056 19.9752C127.362 20.2938 128.286 20.4531 128.86 20.4531C130.771 20.4531 132.237 20.0389 133.192 19.2106C134.148 18.3823 134.626 17.2673 134.626 15.8018C134.626 14.5275 134.084 13.5399 133.033 12.839C131.982 12.1381 130.898 11.5965 129.752 11.1824C129.274 11.0231 128.923 10.8956 128.796 10.8001Z" fill="#47763B"/>
</svg>
