<svg width="22" height="22" viewBox="0 0 22 22" fill="none" xmlns="http://www.w3.org/2000/svg">
<path fill-rule="evenodd" clip-rule="evenodd" d="M12.3919 6.90371C12.3919 7.66312 11.7705 8.28446 11.0111 8.28446C10.2517 8.28446 9.63037 7.66312 9.63037 6.90371V1.38074C9.63037 0.621334 10.2517 0 11.0111 0C11.7705 0 12.3919 0.621334 12.3919 1.38074V6.90371ZM13.773 6.62793H20.6767C21.4361 6.62793 22.2645 7.38734 21.9194 8.4229L19.2959 20.4354C19.0198 21.2638 18.6746 21.8161 17.9152 21.8161H4.10777C3.34836 21.8161 2.93414 21.1948 2.72703 20.4354L0.0345818 8.4229C-0.17253 7.3183 0.586879 6.62793 1.34629 6.62793H8.25C8.25 8.14675 9.49267 9.38941 11.0115 9.38941C12.5303 9.38941 13.773 8.14675 13.773 6.62793ZM6.86926 13.5316V16.2931H15.1537V13.5316H6.86926Z" fill="white"/>
</svg>
