<svg width="36" height="40" viewBox="0 0 36 40" fill="none" xmlns="http://www.w3.org/2000/svg">
<path d="M23.4876 25.8778H22.3472V24.3937C24.175 23.1205 25.4638 21.1209 25.7918 18.8166H27.0494C28.9943 18.8166 30.58 17.231 30.58 15.2861V12.935C30.58 5.80355 24.7764 0 17.645 0C10.5058 0 4.70221 5.80355 4.70221 12.935V15.2861C4.70221 17.231 6.28784 18.8166 8.23277 18.8166H9.49034C9.8184 21.1209 11.1072 23.1205 12.935 24.3937V25.8778H11.7946C5.29584 25.8778 0 31.1736 0 37.6801V38.8205C0 39.4689 0.523335 40 1.17946 40H34.1105C34.7588 40 35.29 39.4767 35.29 38.8205V37.6801C35.29 31.1736 29.9941 25.8778 23.4876 25.8778ZM27.0572 16.4655H25.8778V14.1144H27.0572C27.7055 14.1144 28.2367 14.6456 28.2367 15.2939C28.2289 15.9422 27.7055 16.4655 27.0572 16.4655ZM17.645 2.3511C23.1517 2.3511 27.6821 6.56903 28.182 11.9508C27.8305 11.8336 27.4478 11.7633 27.0494 11.7633H25.7918C25.2216 7.77973 21.7848 4.70221 17.645 4.70221C13.5052 4.70221 10.0683 7.77192 9.49815 11.7633H8.24058C7.84222 11.7633 7.46729 11.8258 7.10799 11.9508C7.60789 6.57684 12.1383 2.3511 17.645 2.3511ZM7.06112 15.2939C7.06112 14.6456 7.59227 14.1144 8.24058 14.1144H9.42004V16.4655H8.24058C7.58446 16.4655 7.06112 15.9422 7.06112 15.2939ZM11.7633 17.645V12.9428C11.7633 9.70123 14.4034 7.06112 17.645 7.06112C20.8865 7.06112 23.5267 9.70123 23.5267 12.9428V16.4733H17.645C16.9967 16.4733 16.4655 16.9967 16.4655 17.6528C16.4655 18.3089 16.9889 18.8323 17.645 18.8323H23.4095C22.8627 21.5114 20.4882 23.5345 17.645 23.5345C14.4034 23.5267 11.7633 20.8865 11.7633 17.645ZM17.645 25.8778C18.4651 25.8778 19.2541 25.7606 19.9961 25.5341V27.0494C19.9961 28.346 18.9416 29.4005 17.645 29.4005C16.3484 29.4005 15.2939 28.346 15.2939 27.0494V25.5341C16.0359 25.7606 16.8248 25.8778 17.645 25.8778ZM28.2289 37.6411V34.1105C28.2289 33.4622 27.7055 32.9311 27.0494 32.9311C26.4011 32.9311 25.87 33.4544 25.87 34.1105V37.6411H9.41223V34.1105C9.41223 33.4622 8.88889 32.9311 8.23277 32.9311C7.57665 32.9311 7.05331 33.4544 7.05331 34.1105V37.6411H2.3511C2.37454 32.4468 6.60028 28.2289 11.8024 28.2289H13.0912C13.5208 29.877 14.8174 31.1814 16.4733 31.611V34.1105C16.4733 34.7588 16.9967 35.29 17.6528 35.29C18.3089 35.29 18.8323 34.7667 18.8323 34.1105V31.611C20.4804 31.1814 21.7848 29.8848 22.2144 28.2289H23.5032C28.6975 28.2289 32.9311 32.4468 32.9545 37.6411H28.2289Z" fill="#EEF3E6"/>
</svg>
