<svg width="30" height="30" viewBox="0 0 30 30" fill="none" xmlns="http://www.w3.org/2000/svg">
<path d="M15 0C6.72834 0 0 6.72834 0 15C0 23.2717 6.72834 30 15 30C19.0077 30 22.8203 28.3835 25.6568 25.5531C26.1265 25.0834 26.0716 24.2904 25.5958 23.8207L23.229 21.4904C23.7414 20.7889 23.8085 19.941 23.3876 19.1297C22.8142 18.0256 21.9601 17.1411 20.8499 16.5067C20.4229 16.2627 20.0203 16.1407 19.6177 16.1407C19.4591 16.1407 19.3005 16.159 19.148 16.1956C18.6356 16.3176 18.1476 16.5616 17.6474 16.9276C17.4888 17.0435 17.2997 17.1045 17.074 17.1045C16.8056 17.1045 16.5067 17.013 16.3115 16.8605C14.8536 15.7747 13.6153 14.5364 12.5295 13.0785C12.316 12.7918 12.1452 12.1696 12.4624 11.7426C12.8284 11.2424 13.0724 10.7544 13.1944 10.242C13.3286 9.69296 13.2249 9.13176 12.8833 8.54616C12.2489 7.43595 11.3644 6.58194 10.2603 6.00854C9.90037 5.81944 9.53436 5.72794 9.17446 5.72794C8.56446 5.72794 7.99715 5.99024 7.52745 6.49044C7.09435 6.94795 6.71615 7.43595 6.27694 8.02155C5.87434 8.55836 5.90484 9.18056 5.93534 9.72956V9.74177C5.98414 10.4372 6.24644 11.2607 6.72834 12.255C7.54575 13.9447 8.71086 15.5429 10.2908 17.1533C10.6141 17.4827 11.9073 18.7759 12.2367 19.0992C13.8471 20.673 15.4453 21.8381 17.135 22.6617C18.1293 23.1497 18.9528 23.4059 19.6482 23.4547H19.6604C19.8007 23.4608 19.9593 23.4669 20.1057 23.4669C20.4595 23.4669 20.917 23.4242 21.3257 23.1375L22.8813 24.6747C20.6608 26.4925 17.9036 27.4868 14.9939 27.4868C8.10695 27.4868 2.50712 21.8808 2.50712 15C2.51322 8.11305 8.11305 2.51322 15 2.51322C21.8869 2.51322 27.4868 8.11305 27.4868 15C27.4868 15.6954 28.048 16.2566 28.7434 16.2566C29.4388 16.2566 30 15.6954 30 15C30 6.72834 23.2717 0 15 0Z" fill="#7A6E66"/>
</svg>
