<svg width="60" height="60" viewBox="0 0 60 60" fill="none" xmlns="http://www.w3.org/2000/svg">
<rect opacity="0.1" width="60" height="60" rx="30" fill="#47763B"/>
<path fill-rule="evenodd" clip-rule="evenodd" d="M31.3886 29.495C31.6889 29.3414 32.0234 29.2602 32.3705 29.2602C32.9457 29.2602 33.4864 29.4835 33.894 29.889L34.7715 29.0116C36.9431 29.7728 39.4547 29.2855 41.1906 27.5496C42.6513 26.0889 43.2274 24.0792 42.9199 22.1849C42.886 21.9763 42.7383 21.8042 42.5372 21.7393C42.3362 21.6743 42.1155 21.7271 41.9661 21.8766L40.6631 23.1795C39.6021 24.2405 37.8817 24.2405 36.8206 23.1795C35.7595 22.1184 35.7595 20.398 36.8206 19.337L38.1236 18.0341C38.273 17.8846 38.3263 17.6639 38.2612 17.4627C38.1962 17.2615 38.0239 17.1141 37.8152 17.0803C35.9209 16.7728 33.9111 17.3488 32.4505 18.8095C30.6888 20.5713 30.2146 23.1316 31.0249 25.3249L29.1217 27.228L31.3886 29.495ZM27.9205 32.9439L25.6631 30.6866L17.7698 38.5798C16.7434 39.6062 16.7434 41.2703 17.7698 42.2966C18.7961 43.323 20.4602 43.323 21.4865 42.2966L28.2911 35.4921C27.6048 34.8022 27.4811 33.7605 27.9205 32.9439ZM32.3704 30.5941C32.5819 30.5941 32.7936 30.6749 32.955 30.8363L40.6984 38.5796C41.7248 39.606 41.7248 41.2701 40.6984 42.2964C39.6721 43.3228 38.008 43.3228 36.9817 42.2964L29.2382 34.553C28.9153 34.2301 28.9153 33.7067 29.2382 33.3838L29.7426 32.8794L21.3488 24.4857L20.9565 24.8781C20.5988 25.2359 20.0063 25.1911 19.7062 24.7837L17.1842 21.3591C16.9418 21.0301 16.9762 20.5733 17.2653 20.2843L18.7193 18.8301C19.0083 18.5411 19.4651 18.5067 19.7942 18.749L23.2188 21.2711C23.6263 21.5712 23.6707 22.164 23.3132 22.5214L22.9208 22.9137L31.3146 31.3075L31.7858 30.8363C31.9472 30.6749 32.1588 30.5941 32.3704 30.5941Z" fill="#47763B"/>
</svg>
