<svg width="60" height="60" viewBox="0 0 60 60" fill="none" xmlns="http://www.w3.org/2000/svg">
<rect opacity="0.1" width="60" height="60" rx="30" fill="#47763B"/>
<path d="M43.6926 19.3078C43.4875 19.1028 43.2439 19 42.9634 19H26.3705C26.0897 19 25.8465 19.1028 25.6414 19.3078C25.4362 19.5131 25.3336 19.7563 25.3336 20.0371V23.1483H22.7408C22.4491 23.1483 22.133 23.2185 21.7928 23.3589C21.4524 23.4995 21.1797 23.672 20.9746 23.8773L17.7661 27.0857C17.6257 27.2261 17.5043 27.388 17.4015 27.5718C17.299 27.7551 17.2233 27.9202 17.1747 28.0658C17.1261 28.2118 17.0908 28.4114 17.0694 28.6655C17.048 28.9194 17.0342 29.1058 17.0289 29.2247C17.0237 29.3434 17.0237 29.5487 17.0289 29.8404C17.0343 30.1323 17.037 30.3211 17.037 30.4077V35.5927C16.7563 35.5927 16.5132 35.6953 16.3079 35.9008C16.1027 36.1056 16 36.3489 16 36.6298C16 36.7916 16.0215 36.9349 16.0647 37.059C16.108 37.1832 16.1808 37.2831 16.2837 37.3588C16.3862 37.4346 16.4754 37.4965 16.5509 37.5453C16.6267 37.5938 16.7536 37.6261 16.9318 37.6424C17.11 37.6587 17.2315 37.6696 17.2963 37.675C17.3612 37.6801 17.4988 37.6801 17.7095 37.675C17.9203 37.6696 18.0418 37.6668 18.0742 37.6668H19.1112C19.1112 38.8116 19.5164 39.7893 20.3264 40.5995C21.1367 41.4096 22.1142 41.8148 23.2594 41.8148C24.4044 41.8148 25.382 41.4096 26.1922 40.5995C27.0025 39.7893 27.4073 38.8116 27.4073 37.6668H33.6298C33.6298 38.8116 34.035 39.7893 34.845 40.5995C35.655 41.4096 36.6327 41.8148 37.7778 41.8148C38.9232 41.8148 39.9003 41.4096 40.7107 40.5995C41.5209 39.7893 41.9259 38.8116 41.9259 37.6668C41.9581 37.6668 42.0798 37.6696 42.2903 37.675C42.501 37.6801 42.6387 37.6801 42.7035 37.675C42.7685 37.6696 42.8902 37.6587 43.0683 37.6424C43.2465 37.6261 43.3733 37.5939 43.449 37.5453C43.5248 37.4967 43.6137 37.4346 43.7163 37.3588C43.819 37.2831 43.8921 37.1832 43.9351 37.059C43.9788 36.9348 44 36.7915 44 36.6298V20.0373C44.0002 19.7564 43.8977 19.5135 43.6926 19.3078ZM24.7174 39.1251C24.3071 39.5355 23.8208 39.7411 23.2591 39.7411C22.6974 39.7411 22.2112 39.5357 21.8007 39.1251C21.3902 38.7149 21.185 38.2286 21.185 37.667C21.185 37.1053 21.3904 36.6187 21.8007 36.2083C22.2111 35.7981 22.6973 35.5927 23.2591 35.5927C23.8208 35.5927 24.3071 35.7979 24.7174 36.2083C25.1281 36.6187 25.3334 37.1053 25.3334 37.667C25.3334 38.2286 25.1281 38.7149 24.7174 39.1251ZM25.3334 29.3705H19.111V28.8845C19.111 28.7441 19.1595 28.6252 19.2567 28.5279L22.4165 25.3683C22.5137 25.2711 22.6327 25.2226 22.7731 25.2226H25.3334V29.3705ZM39.236 39.1251C38.8257 39.5355 38.3395 39.7411 37.7778 39.7411C37.216 39.7411 36.7296 39.5357 36.3192 39.1251C35.9088 38.7149 35.7035 38.2286 35.7035 37.667C35.7035 37.1053 35.9088 36.6187 36.3192 36.2083C36.7296 35.7981 37.216 35.5927 37.7778 35.5927C38.3395 35.5927 38.8257 35.7979 39.236 36.2083C39.6464 36.6189 39.8519 37.1053 39.8519 37.667C39.8519 38.2286 39.6468 38.7149 39.236 39.1251Z" fill="#47763B"/>
</svg>
